<svg width="11" height="7" viewBox="0 0 11 7" fill="none" xmlns="http://www.w3.org/2000/svg">
<path fill-rule="evenodd" clip-rule="evenodd" d="M10.254 4.10889C9.38274 5.50603 7.73053 6.37393 5.94296 6.37393C4.15423 6.37393 2.50204 5.50603 1.63081 4.10889C1.56371 4.00041 1.56371 3.88573 1.63081 3.77734C2.50204 2.38022 4.15423 1.51241 5.94296 1.51241C7.73053 1.51241 9.38272 2.38022 10.254 3.77734C10.3222 3.88573 10.3222 4.00041 10.254 4.10889ZM10.8105 3.50033C9.82703 1.92291 7.96194 0.943115 5.94296 0.943115C3.92282 0.943115 2.05774 1.92291 1.07428 3.50033C0.898416 3.78178 0.898416 4.10445 1.07428 4.38569C2.05774 5.96311 3.92282 6.94312 5.94296 6.94312C7.96194 6.94312 9.82703 5.96311 10.8105 4.38569C10.9864 4.10447 10.9864 3.78178 10.8105 3.50033ZM5.94296 5.11091C6.66378 5.11091 7.25038 4.58707 7.25038 3.94307C7.25038 3.29907 6.66378 2.77522 5.94296 2.77522C5.22099 2.77522 4.63439 3.29907 4.63439 3.94307C4.63439 4.58707 5.22101 5.11091 5.94296 5.11091ZM5.94296 2.20592C4.86925 2.20592 3.99688 2.98528 3.99688 3.94309C3.99688 4.9011 4.86927 5.68014 5.94296 5.68014C7.01551 5.68014 7.88788 4.90108 7.88788 3.94309C7.88788 2.98528 7.01551 2.20592 5.94296 2.20592Z" fill="black"/>
</svg>
